<svg xmlns="http://www.w3.org/2000/svg" xmlns:xlink="http://www.w3.org/1999/xlink" version="1.1" id="Your_Icon" x="0px" y="0px" width="100px" height="100px" viewBox="0 0 100 100" enable-background="new 0 0 100 100" xml:space="preserve">
<g>
	<g>
		<g>
		</g>
	</g>
	<g>
	</g>
</g>
<path d="M95,3.03H23c-1.104,0-2,0.896-2,2v16.5H9.5c-3.584,0-6.5,2.916-6.5,6.5v58c0,6.065,4.935,11,11,11h72  c6.065,0,11-4.935,11-11v-81C97,3.926,96.104,3.03,95,3.03z M21,86.03c0,3.859-3.14,7-7,7c-3.86,0-7-3.141-7-7v-58  c0-1.379,1.122-2.5,2.5-2.5c1.379,0,2.5,1.122,2.5,2.5v48.999c0,1.104,0.896,2,2,2s2-0.896,2-2V28.031c0-0.886-0.178-1.73-0.5-2.5  H21V86.03z M93,86.03c0,3.859-3.141,7-7,7H22.479c1.574-1.903,2.521-4.343,2.521-7v-62.5V7.03h68V86.03z M30,14.53  c0-1.104,0.896-2,2-2h54c1.104,0,2,0.896,2,2s-0.896,2-2,2H32C30.896,16.53,30,15.635,30,14.53z M30,23.51c0-1.104,0.896-2,2-2h54  c1.104,0,2,0.896,2,2s-0.896,2-2,2H32C30.896,25.51,30,24.615,30,23.51z M86,34.446H63.5c-1.104,0-2,0.896-2,2v18.033  c0,1.104,0.896,2,2,2H86c1.104,0,2-0.896,2-2V36.446C88,35.342,87.104,34.446,86,34.446z M84,52.479H65.5V38.446H84V52.479z   M30,36.446c0-1.104,0.896-2,2-2h22.5c1.104,0,2,0.896,2,2s-0.896,2-2,2H32C30.896,38.446,30,37.551,30,36.446z M30,45.462  c0-1.104,0.896-2,2-2h22.5c1.104,0,2,0.896,2,2s-0.896,2-2,2H32C30.896,47.462,30,46.567,30,45.462z M30,54.479c0-1.104,0.896-2,2-2  h22.5c1.104,0,2,0.896,2,2s-0.896,2-2,2H32C30.896,56.479,30,55.584,30,54.479z M88,63.497c0,1.104-0.896,2-2,2H63.5  c-1.104,0-2-0.896-2-2s0.896-2,2-2H86C87.104,61.497,88,62.393,88,63.497z M30,63.497c0-1.104,0.896-2,2-2h22.5c1.104,0,2,0.896,2,2  s-0.896,2-2,2H32C30.896,65.497,30,64.602,30,63.497z M88,72.514c0,1.104-0.896,2-2,2H63.5c-1.104,0-2-0.896-2-2s0.896-2,2-2H86  C87.104,70.514,88,71.409,88,72.514z M30,72.514c0-1.104,0.896-2,2-2h22.5c1.104,0,2,0.896,2,2s-0.896,2-2,2H32  C30.896,74.514,30,73.618,30,72.514z M88,81.53c0,1.104-0.896,2-2,2H63.5c-1.104,0-2-0.896-2-2s0.896-2,2-2H86  C87.104,79.53,88,80.426,88,81.53z M30,81.53c0-1.104,0.896-2,2-2h22.5c1.104,0,2,0.896,2,2s-0.896,2-2,2H32  C30.896,83.53,30,82.635,30,81.53z"/>
</svg>